<svg width="16" height="16" viewBox="0 0 16 16" fill="none" xmlns="http://www.w3.org/2000/svg">
<path d="M7.81444 13.192C7.81444 13.192 2.14526 10.0173 2.14526 6.16226C2.14526 5.48076 2.38138 4.82031 2.81345 4.29327C3.24551 3.76624 3.84683 3.40518 4.51509 3.27153C5.18336 3.13788 5.87729 3.23989 6.47882 3.5602C7.08035 3.88051 7.55233 4.39934 7.81444 5.02842V5.02842C8.07656 4.39934 8.54853 3.88051 9.15007 3.5602C9.7516 3.23989 10.4455 3.13788 11.1138 3.27153C11.7821 3.40518 12.3834 3.76624 12.8154 4.29327C13.2475 4.82031 13.4836 5.48076 13.4836 6.16226C13.4836 10.0173 7.81444 13.192 7.81444 13.192Z" stroke="#4A60A1" stroke-width="0.936687" stroke-linecap="round" stroke-linejoin="round"/>
</svg>
