<svg width="16" height="16" viewBox="0 0 16 16" fill="none" xmlns="http://www.w3.org/2000/svg">
<path d="M4.16008 10.0173C5.16201 10.0173 5.97422 9.20508 5.97422 8.20316C5.97422 7.20124 5.16201 6.38902 4.16008 6.38902C3.15816 6.38902 2.34595 7.20124 2.34595 8.20316C2.34595 9.20508 3.15816 10.0173 4.16008 10.0173Z" stroke="#4A60A1" stroke-width="0.936687" stroke-linecap="round" stroke-linejoin="round"/>
<path d="M10.5095 14.0991C11.5114 14.0991 12.3236 13.2869 12.3236 12.285C12.3236 11.2831 11.5114 10.4708 10.5095 10.4708C9.50753 10.4708 8.69531 11.2831 8.69531 12.285C8.69531 13.2869 9.50753 14.0991 10.5095 14.0991Z" stroke="#4A60A1" stroke-width="0.936687" stroke-linecap="round" stroke-linejoin="round"/>
<path d="M10.5095 5.9355C11.5114 5.9355 12.3236 5.12328 12.3236 4.12136C12.3236 3.11944 11.5114 2.30722 10.5095 2.30722C9.50753 2.30722 8.69531 3.11944 8.69531 4.12136C8.69531 5.12328 9.50753 5.9355 10.5095 5.9355Z" stroke="#4A60A1" stroke-width="0.936687" stroke-linecap="round" stroke-linejoin="round"/>
<path d="M8.98452 5.10211L5.68506 7.22238" stroke="#4A60A1" stroke-width="0.936687" stroke-linecap="round" stroke-linejoin="round"/>
<path d="M5.68506 9.18391L8.98452 11.3042" stroke="#4A60A1" stroke-width="0.936687" stroke-linecap="round" stroke-linejoin="round"/>
</svg>
